<mxfile modified="2023-10-13T19:33:55.715Z" host="app.diagrams.net" agent="Mozilla/5.0 (Macintosh; Intel Mac OS X 10_15_7) AppleWebKit/537.36 (KHTML, like Gecko) Chrome/118.0.0.0 Safari/537.36" etag="A0xODRwfu_gGiJS6oWk5" version="21.6.5" type="github">
  <diagram id="Ht1M8jgEwFfnCIfOTk4-" name="Page-1">
    <mxGraphModel dx="1097" dy="1840" grid="1" gridSize="10" guides="1" tooltips="1" connect="1" arrows="1" fold="1" page="1" pageScale="1" pageWidth="1169" pageHeight="827" math="0" shadow="0">
      <root>
        <mxCell id="0" />
        <mxCell id="1" parent="0" />
        <mxCell id="UEzPUAAOIrF-is8g5C7q-175" value="AWS Cloud" style="points=[[0,0],[0.25,0],[0.5,0],[0.75,0],[1,0],[1,0.25],[1,0.5],[1,0.75],[1,1],[0.75,1],[0.5,1],[0.25,1],[0,1],[0,0.75],[0,0.5],[0,0.25]];outlineConnect=0;gradientColor=none;html=1;whiteSpace=wrap;fontSize=12;fontStyle=0;shape=mxgraph.aws4.group;grIcon=mxgraph.aws4.group_aws_cloud_alt;strokeColor=#232F3E;fillColor=none;verticalAlign=top;align=left;spacingLeft=30;fontColor=#232F3E;dashed=0;labelBackgroundColor=#ffffff;container=1;pointerEvents=0;collapsible=0;recursiveResize=0;" parent="1" vertex="1">
          <mxGeometry x="245" y="-540" width="679" height="460" as="geometry" />
        </mxCell>
        <mxCell id="fvweWiXP8NdeZRgMbFEW-2" value="Region - us-east-1" style="rounded=1;whiteSpace=wrap;html=1;" vertex="1" parent="UEzPUAAOIrF-is8g5C7q-175">
          <mxGeometry x="560" y="10" width="112" height="20" as="geometry" />
        </mxCell>
        <mxCell id="fvweWiXP8NdeZRgMbFEW-1" value="VPC" style="points=[[0,0],[0.25,0],[0.5,0],[0.75,0],[1,0],[1,0.25],[1,0.5],[1,0.75],[1,1],[0.75,1],[0.5,1],[0.25,1],[0,1],[0,0.75],[0,0.5],[0,0.25]];outlineConnect=0;gradientColor=none;html=1;whiteSpace=wrap;fontSize=12;fontStyle=0;container=1;pointerEvents=0;collapsible=0;recursiveResize=0;shape=mxgraph.aws4.group;grIcon=mxgraph.aws4.group_vpc;strokeColor=#248814;fillColor=none;verticalAlign=top;align=left;spacingLeft=30;fontColor=#AAB7B8;dashed=0;" vertex="1" parent="UEzPUAAOIrF-is8g5C7q-175">
          <mxGeometry x="29.5" y="40" width="630.5" height="410" as="geometry" />
        </mxCell>
        <mxCell id="fvweWiXP8NdeZRgMbFEW-9" value="public subnet 1" style="sketch=0;outlineConnect=0;gradientColor=none;html=1;whiteSpace=wrap;fontSize=12;fontStyle=0;shape=mxgraph.aws4.group;grIcon=mxgraph.aws4.group_subnet;strokeColor=#879196;fillColor=none;verticalAlign=top;align=left;spacingLeft=30;fontColor=#879196;dashed=0;" vertex="1" parent="fvweWiXP8NdeZRgMbFEW-1">
          <mxGeometry x="45.5" y="50.5" width="210" height="140" as="geometry" />
        </mxCell>
        <mxCell id="fvweWiXP8NdeZRgMbFEW-14" value="private subnet 1" style="sketch=0;outlineConnect=0;gradientColor=none;html=1;whiteSpace=wrap;fontSize=12;fontStyle=0;shape=mxgraph.aws4.group;grIcon=mxgraph.aws4.group_subnet;strokeColor=#879196;fillColor=none;verticalAlign=top;align=left;spacingLeft=30;fontColor=#879196;dashed=0;" vertex="1" parent="fvweWiXP8NdeZRgMbFEW-1">
          <mxGeometry x="45.5" y="230" width="210" height="150" as="geometry" />
        </mxCell>
        <mxCell id="fvweWiXP8NdeZRgMbFEW-16" value="public subnet 2" style="sketch=0;outlineConnect=0;gradientColor=none;html=1;whiteSpace=wrap;fontSize=12;fontStyle=0;shape=mxgraph.aws4.group;grIcon=mxgraph.aws4.group_subnet;strokeColor=#879196;fillColor=none;verticalAlign=top;align=left;spacingLeft=30;fontColor=#879196;dashed=0;" vertex="1" parent="fvweWiXP8NdeZRgMbFEW-1">
          <mxGeometry x="360" y="50.5" width="210" height="140" as="geometry" />
        </mxCell>
        <mxCell id="fvweWiXP8NdeZRgMbFEW-17" value="private subnet 2" style="sketch=0;outlineConnect=0;gradientColor=none;html=1;whiteSpace=wrap;fontSize=12;fontStyle=0;shape=mxgraph.aws4.group;grIcon=mxgraph.aws4.group_subnet;strokeColor=#879196;fillColor=none;verticalAlign=top;align=left;spacingLeft=30;fontColor=#879196;dashed=0;" vertex="1" parent="fvweWiXP8NdeZRgMbFEW-1">
          <mxGeometry x="366" y="225.5" width="210" height="150" as="geometry" />
        </mxCell>
        <mxCell id="fvweWiXP8NdeZRgMbFEW-54" value="" style="edgeStyle=orthogonalEdgeStyle;rounded=0;orthogonalLoop=1;jettySize=auto;html=1;" edge="1" parent="fvweWiXP8NdeZRgMbFEW-1" source="fvweWiXP8NdeZRgMbFEW-21" target="fvweWiXP8NdeZRgMbFEW-22">
          <mxGeometry relative="1" as="geometry" />
        </mxCell>
        <mxCell id="fvweWiXP8NdeZRgMbFEW-21" value="" style="rounded=1;arcSize=10;dashed=1;strokeColor=#F59D56;fillColor=none;gradientColor=none;dashPattern=8 4;strokeWidth=2;" vertex="1" parent="fvweWiXP8NdeZRgMbFEW-1">
          <mxGeometry x="20" y="20" width="260" height="380" as="geometry" />
        </mxCell>
        <mxCell id="fvweWiXP8NdeZRgMbFEW-22" value="" style="rounded=1;arcSize=10;dashed=1;strokeColor=#F59D56;fillColor=none;gradientColor=none;dashPattern=8 4;strokeWidth=2;" vertex="1" parent="fvweWiXP8NdeZRgMbFEW-1">
          <mxGeometry x="330" y="20" width="270" height="380" as="geometry" />
        </mxCell>
        <mxCell id="fvweWiXP8NdeZRgMbFEW-24" value="" style="outlineConnect=0;dashed=0;verticalLabelPosition=bottom;verticalAlign=top;align=center;html=1;shape=mxgraph.aws3.rds;fillColor=#2E73B8;gradientColor=none;" vertex="1" parent="fvweWiXP8NdeZRgMbFEW-1">
          <mxGeometry x="120" y="289" width="61" height="61" as="geometry" />
        </mxCell>
        <mxCell id="fvweWiXP8NdeZRgMbFEW-41" value="" style="outlineConnect=0;dashed=0;verticalLabelPosition=bottom;verticalAlign=top;align=center;html=1;shape=mxgraph.aws3.rds;fillColor=#2E73B8;gradientColor=none;" vertex="1" parent="fvweWiXP8NdeZRgMbFEW-1">
          <mxGeometry x="440.5" y="289" width="61" height="61" as="geometry" />
        </mxCell>
        <mxCell id="fvweWiXP8NdeZRgMbFEW-44" value="Ec2" style="text;html=1;strokeColor=none;fillColor=none;align=center;verticalAlign=middle;whiteSpace=wrap;rounded=0;" vertex="1" parent="fvweWiXP8NdeZRgMbFEW-1">
          <mxGeometry x="421.75" y="180" width="98.5" height="10.5" as="geometry" />
        </mxCell>
        <mxCell id="fvweWiXP8NdeZRgMbFEW-45" value="EC2" style="text;html=1;strokeColor=none;fillColor=none;align=center;verticalAlign=middle;whiteSpace=wrap;rounded=0;" vertex="1" parent="fvweWiXP8NdeZRgMbFEW-1">
          <mxGeometry x="100.75" y="160.5" width="98.5" height="30" as="geometry" />
        </mxCell>
        <mxCell id="fvweWiXP8NdeZRgMbFEW-46" value="RDS standby" style="text;html=1;strokeColor=none;fillColor=none;align=center;verticalAlign=middle;whiteSpace=wrap;rounded=0;" vertex="1" parent="fvweWiXP8NdeZRgMbFEW-1">
          <mxGeometry x="421.75" y="350" width="98.5" height="30" as="geometry" />
        </mxCell>
        <mxCell id="fvweWiXP8NdeZRgMbFEW-47" value="RDS primary" style="text;html=1;strokeColor=none;fillColor=none;align=center;verticalAlign=middle;whiteSpace=wrap;rounded=0;" vertex="1" parent="fvweWiXP8NdeZRgMbFEW-1">
          <mxGeometry x="100.75" y="350" width="98.5" height="30" as="geometry" />
        </mxCell>
        <mxCell id="fvweWiXP8NdeZRgMbFEW-48" value="Availability Zone a" style="text;html=1;strokeColor=none;fillColor=none;align=center;verticalAlign=middle;whiteSpace=wrap;rounded=0;" vertex="1" parent="fvweWiXP8NdeZRgMbFEW-1">
          <mxGeometry x="45.5" y="22" width="134.5" height="30" as="geometry" />
        </mxCell>
        <mxCell id="fvweWiXP8NdeZRgMbFEW-49" value="Availability Zone b" style="text;html=1;strokeColor=none;fillColor=none;align=center;verticalAlign=middle;whiteSpace=wrap;rounded=0;" vertex="1" parent="fvweWiXP8NdeZRgMbFEW-1">
          <mxGeometry x="355.5" y="22" width="134.5" height="30" as="geometry" />
        </mxCell>
        <mxCell id="fvweWiXP8NdeZRgMbFEW-50" value="" style="outlineConnect=0;dashed=0;verticalLabelPosition=bottom;verticalAlign=top;align=center;html=1;shape=mxgraph.aws3.ec2;fillColor=#F58534;gradientColor=none;" vertex="1" parent="fvweWiXP8NdeZRgMbFEW-1">
          <mxGeometry x="111.75" y="80" width="78.25" height="87" as="geometry" />
        </mxCell>
        <mxCell id="fvweWiXP8NdeZRgMbFEW-51" value="" style="outlineConnect=0;dashed=0;verticalLabelPosition=bottom;verticalAlign=top;align=center;html=1;shape=mxgraph.aws3.ec2;fillColor=#F58534;gradientColor=none;" vertex="1" parent="fvweWiXP8NdeZRgMbFEW-1">
          <mxGeometry x="431.87" y="77" width="78.25" height="87" as="geometry" />
        </mxCell>
        <mxCell id="fvweWiXP8NdeZRgMbFEW-25" value="" style="endArrow=classic;html=1;rounded=0;" edge="1" parent="fvweWiXP8NdeZRgMbFEW-1">
          <mxGeometry width="50" height="50" relative="1" as="geometry">
            <mxPoint x="470.5" y="280" as="sourcePoint" />
            <mxPoint x="470.5" y="200" as="targetPoint" />
          </mxGeometry>
        </mxCell>
        <mxCell id="fvweWiXP8NdeZRgMbFEW-34" value="Port 3306" style="text;html=1;strokeColor=none;fillColor=none;align=center;verticalAlign=middle;whiteSpace=wrap;rounded=0;" vertex="1" parent="fvweWiXP8NdeZRgMbFEW-1">
          <mxGeometry x="475.5" y="250" width="60" height="30" as="geometry" />
        </mxCell>
        <mxCell id="fvweWiXP8NdeZRgMbFEW-52" value="Port 3306" style="text;html=1;strokeColor=none;fillColor=none;align=center;verticalAlign=middle;whiteSpace=wrap;rounded=0;" vertex="1" parent="fvweWiXP8NdeZRgMbFEW-1">
          <mxGeometry x="175.5" y="250" width="60" height="30" as="geometry" />
        </mxCell>
        <mxCell id="fvweWiXP8NdeZRgMbFEW-53" value="" style="endArrow=classic;html=1;rounded=0;" edge="1" parent="fvweWiXP8NdeZRgMbFEW-1">
          <mxGeometry width="50" height="50" relative="1" as="geometry">
            <mxPoint x="149.29000000000002" y="280" as="sourcePoint" />
            <mxPoint x="149.29000000000002" y="200" as="targetPoint" />
          </mxGeometry>
        </mxCell>
        <mxCell id="fvweWiXP8NdeZRgMbFEW-20" value="" style="outlineConnect=0;dashed=0;verticalLabelPosition=bottom;verticalAlign=top;align=center;html=1;shape=mxgraph.aws3.internet_gateway;fillColor=#F58534;gradientColor=none;" vertex="1" parent="UEzPUAAOIrF-is8g5C7q-175">
          <mxGeometry x="320.75" y="10" width="48" height="52" as="geometry" />
        </mxCell>
        <mxCell id="fvweWiXP8NdeZRgMbFEW-5" value="" style="image;aspect=fixed;perimeter=ellipsePerimeter;html=1;align=center;shadow=0;dashed=0;spacingTop=3;image=img/lib/active_directory/laptop_client.svg;" vertex="1" parent="1">
          <mxGeometry x="180" y="-780" width="81" height="90" as="geometry" />
        </mxCell>
        <mxCell id="fvweWiXP8NdeZRgMbFEW-6" value="" style="endArrow=classic;html=1;rounded=0;exitX=1;exitY=0.5;exitDx=0;exitDy=0;" edge="1" parent="1" source="fvweWiXP8NdeZRgMbFEW-5">
          <mxGeometry width="50" height="50" relative="1" as="geometry">
            <mxPoint x="580" y="-410" as="sourcePoint" />
            <mxPoint x="560" y="-735" as="targetPoint" />
          </mxGeometry>
        </mxCell>
        <mxCell id="fvweWiXP8NdeZRgMbFEW-8" value="Application Load Balancer" style="rounded=1;whiteSpace=wrap;html=1;" vertex="1" parent="1">
          <mxGeometry x="530" y="-690" width="135.5" height="29" as="geometry" />
        </mxCell>
        <mxCell id="fvweWiXP8NdeZRgMbFEW-13" value="HTTP Port 80" style="text;html=1;strokeColor=none;fillColor=none;align=center;verticalAlign=middle;whiteSpace=wrap;rounded=0;" vertex="1" parent="1">
          <mxGeometry x="370" y="-771" width="90" height="30" as="geometry" />
        </mxCell>
        <mxCell id="fvweWiXP8NdeZRgMbFEW-23" value="" style="endArrow=classic;html=1;rounded=0;" edge="1" parent="1">
          <mxGeometry width="50" height="50" relative="1" as="geometry">
            <mxPoint x="600" y="-650" as="sourcePoint" />
            <mxPoint x="600" y="-540" as="targetPoint" />
          </mxGeometry>
        </mxCell>
        <mxCell id="fvweWiXP8NdeZRgMbFEW-26" value="" style="endArrow=classic;html=1;rounded=0;" edge="1" parent="1">
          <mxGeometry width="50" height="50" relative="1" as="geometry">
            <mxPoint x="890" y="-670" as="sourcePoint" />
            <mxPoint x="890" y="-530" as="targetPoint" />
          </mxGeometry>
        </mxCell>
        <mxCell id="fvweWiXP8NdeZRgMbFEW-28" value="" style="outlineConnect=0;dashed=0;verticalLabelPosition=bottom;verticalAlign=top;align=center;html=1;shape=mxgraph.aws3.application_load_balancer;fillColor=#F58534;gradientColor=none;" vertex="1" parent="1">
          <mxGeometry x="563.25" y="-771" width="69" height="72" as="geometry" />
        </mxCell>
        <mxCell id="fvweWiXP8NdeZRgMbFEW-29" value="" style="image;aspect=fixed;perimeter=ellipsePerimeter;html=1;align=center;shadow=0;dashed=0;spacingTop=3;image=img/lib/active_directory/laptop_client.svg;" vertex="1" parent="1">
          <mxGeometry x="210" y="-680" width="81" height="90" as="geometry" />
        </mxCell>
        <mxCell id="fvweWiXP8NdeZRgMbFEW-30" value="" style="endArrow=classic;html=1;rounded=0;exitX=1;exitY=0.5;exitDx=0;exitDy=0;" edge="1" parent="1">
          <mxGeometry width="50" height="50" relative="1" as="geometry">
            <mxPoint x="291" y="-661" as="sourcePoint" />
            <mxPoint x="560" y="-710" as="targetPoint" />
          </mxGeometry>
        </mxCell>
        <mxCell id="fvweWiXP8NdeZRgMbFEW-31" value="HTTP Port 80" style="text;html=1;strokeColor=none;fillColor=none;align=center;verticalAlign=middle;whiteSpace=wrap;rounded=0;rotation=-10;" vertex="1" parent="1">
          <mxGeometry x="360" y="-720" width="100" height="40" as="geometry" />
        </mxCell>
        <mxCell id="fvweWiXP8NdeZRgMbFEW-32" value="user 1" style="text;html=1;strokeColor=none;fillColor=none;align=center;verticalAlign=middle;whiteSpace=wrap;rounded=0;" vertex="1" parent="1">
          <mxGeometry x="140" y="-760" width="60" height="30" as="geometry" />
        </mxCell>
        <mxCell id="fvweWiXP8NdeZRgMbFEW-33" value="user 2" style="text;html=1;strokeColor=none;fillColor=none;align=center;verticalAlign=middle;whiteSpace=wrap;rounded=0;" vertex="1" parent="1">
          <mxGeometry x="160" y="-661" width="90" height="30" as="geometry" />
        </mxCell>
        <mxCell id="fvweWiXP8NdeZRgMbFEW-35" value="" style="outlineConnect=0;dashed=0;verticalLabelPosition=bottom;verticalAlign=top;align=center;html=1;shape=mxgraph.aws3.efs;fillColor=#E05243;gradientColor=none;" vertex="1" parent="1">
          <mxGeometry x="1060" y="-390" width="76.5" height="93" as="geometry" />
        </mxCell>
        <mxCell id="fvweWiXP8NdeZRgMbFEW-36" value="EFS" style="text;html=1;strokeColor=none;fillColor=none;align=center;verticalAlign=middle;whiteSpace=wrap;rounded=0;" vertex="1" parent="1">
          <mxGeometry x="1068.25" y="-297" width="60" height="30" as="geometry" />
        </mxCell>
        <mxCell id="fvweWiXP8NdeZRgMbFEW-37" value="" style="endArrow=classic;html=1;rounded=0;" edge="1" parent="1">
          <mxGeometry width="50" height="50" relative="1" as="geometry">
            <mxPoint x="1050" y="-350" as="sourcePoint" />
            <mxPoint x="940" y="-350" as="targetPoint" />
          </mxGeometry>
        </mxCell>
        <mxCell id="fvweWiXP8NdeZRgMbFEW-38" value="" style="endArrow=classic;html=1;rounded=0;" edge="1" parent="1" source="UEzPUAAOIrF-is8g5C7q-175">
          <mxGeometry width="50" height="50" relative="1" as="geometry">
            <mxPoint x="930" y="-340" as="sourcePoint" />
            <mxPoint x="1050" y="-310" as="targetPoint" />
          </mxGeometry>
        </mxCell>
        <mxCell id="fvweWiXP8NdeZRgMbFEW-39" value="Port 2049" style="text;html=1;strokeColor=none;fillColor=none;align=center;verticalAlign=middle;whiteSpace=wrap;rounded=0;" vertex="1" parent="1">
          <mxGeometry x="960" y="-310" width="60" height="30" as="geometry" />
        </mxCell>
      </root>
    </mxGraphModel>
  </diagram>
</mxfile>
